Coordinates
version=1
nRows=28
nColumns=33
inDegrees=yes

Units are S.I. units (second, meters, Newtons, ...)
Angles are in degrees.

endheader
time	ground_thorax_rot_x	ground_thorax_rot_y	ground_thorax_rot_z	ground_thorax_tx	ground_thorax_ty	ground_thorax_tz	clav_prot_r	clav_elev_r	scapula_abduction_r	scapula_elevation_r	scapula_upward_rot_r	scapula_winging_r	shoulder_elv_r	plane_of_elev_r	axial_rot_r	elbow_flexion_r	pro_sup_r	wrist_flex_r	wrist_dev_r	clav_prot_l	clav_elev_l	scapula_abduction_l	scapula_elevation_l	scapula_upward_rot_l	scapula_winging_l	shoulder_elv_l	plane_of_elev_l	axial_rot_l	elbow_flexion_l	pro_sup_l	wrist_flex_l	wrist_dev_l	
6.8400	39.340832	11.302089	12.131486	-207.401983	838.112083	2.418892	14.324657	36.619004	39.444786	45.000000	-45.000000	-2605.506021	-3703.495351	142.103739	180.000000	1453.803170	52.270012	22.482214	7.351888	6.837899	-45.000000	-38.979123	45.000000	-35.839871	817.844102	-2251.881033	138.024506	154.654397	370.405260	2.745523	8.054366	-20.263950	
6.8500	39.333137	11.166728	12.015442	-209.228260	839.123187	2.390827	14.222563	36.600465	39.317446	45.000000	-45.000000	-2605.547248	-3703.413491	142.150812	180.000000	1453.847926	52.435961	22.516487	7.283711	6.855809	-45.000000	-38.949854	45.000000	-35.942643	817.961978	-2251.800631	138.054810	154.486318	370.416400	2.395978	8.039560	-20.275047	
6.8600	39.324563	11.031082	11.904098	-210.996562	840.092883	2.365249	14.122282	36.585514	39.189282	45.000000	-45.000000	-2605.582153	-3703.336257	142.200495	180.000000	1453.888999	52.606519	22.554405	7.221723	6.872566	-45.000000	-38.922698	45.000000	-36.043587	818.074709	-2251.725746	138.086915	154.327656	370.430136	2.111057	8.013016	-20.288460	
6.8700	39.316241	10.894819	11.802487	-212.707949	841.023501	2.344028	14.024338	36.572595	39.062456	45.000000	-45.000000	-2605.610881	-3703.264015	142.250372	180.000000	1453.923191	52.781356	22.594220	7.164013	6.890269	-45.000000	-38.893542	45.000000	-36.146913	818.184678	-2251.657242	138.119788	154.173268	370.442825	1.887492	7.973648	-20.303501	
6.8800	39.307210	10.763151	11.715986	-214.364599	841.917380	2.328900	13.936743	36.548905	38.935422	45.000000	-45.000000	-2605.636202	-3703.200082	142.295544	180.000000	1453.941181	52.962757	22.626808	7.104129	6.916165	-45.000000	-38.859846	45.000000	-36.269493	818.296109	-2251.591268	138.146728	154.009696	370.450889	1.721503	7.925599	-20.318528	
6.8900	39.299226	10.631376	11.637088	-215.969754	842.776853	2.321141	13.850267	36.527781	38.811828	45.000000	-45.000000	-2605.656259	-3703.141772	142.342967	180.000000	1453.953192	53.154447	22.661288	7.045594	6.942867	-45.000000	-38.826227	45.000000	-36.398761	818.403988	-2251.529574	138.175172	153.845355	370.458297	1.607794	7.864299	-20.334508	
6.9000	39.291858	10.497470	11.564295	-217.527565	843.604196	2.321431	13.765141	36.508794	38.691868	45.000000	-45.000000	-2605.669447	-3703.087501	142.390478	180.000000	1453.954879	53.360723	22.696073	6.986995	6.970011	-45.000000	-38.789976	45.000000	-36.536854	818.508489	-2251.469839	138.203076	153.675169	370.461969	1.545449	7.788521	-20.350694	
6.9100	39.286796	10.360999	11.491630	-219.042656	844.401410	2.329860	13.676940	36.497658	38.575534	45.000000	-45.000000	-2605.676640	-3703.034948	142.442144	180.000000	1453.954275	53.584744	22.735089	6.928123	6.993762	-45.000000	-38.751750	45.000000	-36.677513	818.607324	-2251.413009	138.231784	153.501365	370.466630	1.534128	7.695407	-20.368208	
6.9200	39.283403	10.227449	11.424530	-220.519739	845.170033	2.346133	13.593248	36.483148	38.459093	45.000000	-45.000000	-2605.681371	-3702.985664	142.491525	180.000000	1453.945041	53.830547	22.770590	6.863827	7.019395	-45.000000	-38.708063	45.000000	-36.831001	818.703776	-2251.358205	138.256515	153.315637	370.470126	1.576132	7.586924	-20.386121	
6.9300	39.281899	10.094882	11.356030	-221.963156	845.910850	2.369749	13.510758	36.470174	38.341386	45.000000	-45.000000	-2605.684836	-3702.938799	142.539261	180.000000	1453.936981	54.101593	22.806985	6.794590	7.043014	-45.000000	-38.663506	45.000000	-36.991463	818.795510	-2251.305622	138.281012	153.124796	370.477897	1.672944	7.462173	-20.405492	
6.9400	39.281186	9.964390	11.290829	-223.376757	846.623828	2.400234	13.434534	36.451330	38.219049	45.000000	-45.000000	-2605.687507	-3702.895487	142.578166	180.000000	1453.927014	54.401417	22.839987	6.716826	7.068811	-45.000000	-38.613994	45.000000	-37.167446	818.885683	-2251.255194	138.301683	152.924472	370.487900	1.827596	7.323174	-20.425590	
6.9500	39.280843	9.837689	11.227352	-224.763751	847.308035	2.437243	13.367124	36.422492	38.090573	45.000000	-45.000000	-2605.692468	-3702.856990	142.606040	180.000000	1453.917828	54.733204	22.867368	6.627570	7.097882	-45.000000	-38.562234	45.000000	-37.363274	818.975054	-2251.204400	138.316639	152.715600	370.502057	2.041680	7.173668	-20.446061	
6.9600	39.281283	9.717272	11.167643	-226.126921	847.961835	2.480645	13.308232	36.384488	37.956342	45.000000	-45.000000	-2605.699423	-3702.824344	142.625160	180.000000	1453.909847	55.100777	22.890517	6.527423	7.130421	-45.000000	-38.507801	45.000000	-37.578264	819.063137	-2251.156606	138.327224	152.503539	370.520958	2.314903	7.014270	-20.466646	
6.9700	39.280864	9.600802	11.111960	-227.468568	848.582966	2.530446	13.253543	36.342566	37.820831	45.000000	-45.000000	-2605.705289	-3702.796139	142.641555	180.000000	1453.903096	55.506296	22.911282	6.417439	7.163583	-45.000000	-38.452519	45.000000	-37.808747	819.148227	-2251.108436	138.336318	152.295578	370.540423	2.645319	6.845780	-20.486136	
6.9800	39.282186	9.487222	11.056644	-228.790747	849.168836	2.586740	13.197503	36.304604	37.684628	45.000000	-45.000000	-2605.708393	-3702.770094	142.661866	180.000000	1453.903098	55.949357	22.935423	6.301054	7.194299	-45.000000	-38.394783	45.000000	-38.045508	819.228986	-2251.065330	138.345515	152.100770	370.564579	3.029016	6.668013	-20.505228	
6.9900	39.283728	9.375152	11.003372	-230.095227	849.716746	2.649602	13.141992	36.267164	37.548627	45.000000	-45.000000	-2605.709262	-3702.746142	142.684676	180.000000	1453.908054	56.426134	22.959129	6.177137	7.223336	-45.000000	-38.335194	45.000000	-38.292855	819.305856	-2251.021644	138.353027	151.917127	370.590072	3.462120	6.484532	-20.522413	
7.0000	39.287884	9.267415	10.948678	-231.383427	850.224149	2.719053	13.087629	36.229787	37.410235	45.000000	-45.000000	-2605.711017	-3702.725572	142.710361	180.000000	1453.919642	56.930750	22.983193	6.048599	7.250685	-45.000000	-38.274822	45.000000	-38.546262	819.378915	-2250.982985	138.357839	151.747595	370.621952	3.938863	6.297668	-20.537941	
7.0100	39.290980	9.160476	10.896170	-232.656050	850.688787	2.794951	13.032567	36.194555	37.272588	45.000000	-45.000000	-2605.709162	-3702.708593	142.739751	180.000000	1453.932306	57.453607	23.005924	5.917868	7.275734	-45.000000	-38.213493	45.000000	-38.802831	819.447455	-2250.945555	138.363441	151.592104	370.652362	4.452405	6.108048	-20.549595	
7.0200	39.294455	9.055589	10.835981	-233.912797	851.108889	2.876924	12.976760	36.161635	37.130310	45.000000	-45.000000	-2605.704747	-3702.697965	142.771467	180.000000	1453.943985	57.981275	23.028457	5.789384	7.297366	-45.000000	-38.152195	45.000000	-39.058921	819.509831	-2250.909656	138.363568	151.450064	370.684772	4.994558	5.918018	-20.557418	
7.0300	39.297896	8.953236	10.781364	-235.152195	851.483306	2.964267	12.921381	36.129678	36.990624	45.000000	-45.000000	-2605.698737	-3702.693012	142.808824	180.000000	1453.953053	58.497290	23.047507	5.663590	7.316392	-45.000000	-38.088788	45.000000	-39.314393	819.568670	-2250.878866	138.365538	151.321661	370.716562	5.557891	5.727523	-20.560200	
7.0400	39.301547	8.854070	10.731981	-236.371491	851.811548	3.055819	12.867618	36.098832	36.850463	45.000000	-45.000000	-2605.691777	-3702.693356	142.848972	180.000000	1453.956629	58.986431	23.064450	5.544904	7.334469	-45.000000	-38.023675	45.000000	-39.563362	819.626763	-2250.856381	138.368456	151.209529	370.749551	6.137023	5.536997	-20.557722	
7.0500	39.303977	8.757784	10.694085	-237.566471	852.093668	3.149834	12.813835	36.069447	36.714983	45.000000	-45.000000	-2605.682909	-3702.700693	142.896028	180.000000	1453.956206	59.432022	23.078296	5.432719	7.351637	-45.000000	-37.955309	45.000000	-39.801483	819.684380	-2250.841485	138.377473	151.111716	370.781793	6.727611	5.347195	-20.549529	
7.0600	39.305265	8.666442	10.663308	-238.731813	852.330142	3.243950	12.764009	36.040485	36.576965	45.000000	-45.000000	-2605.672222	-3702.712978	142.942507	180.000000	1453.945778	59.821173	23.091833	5.332505	7.368592	-45.000000	-37.883452	45.000000	-40.035318	819.741944	-2250.831601	138.384321	151.028424	370.814594	7.325584	5.157516	-20.535314	
7.0700	39.305440	8.582895	10.642353	-239.861144	852.521652	3.335269	12.714190	36.011166	36.443066	45.000000	-45.000000	-2605.662140	-3702.738208	142.998819	180.000000	1453.940192	60.140615	23.106119	5.239675	7.385179	-45.000000	-37.807355	45.000000	-40.268761	819.795019	-2250.823871	138.392542	150.962417	370.852427	7.926127	4.969988	-20.516265	
7.0800	39.303011	8.507223	10.632139	-240.947757	852.668854	3.420640	12.672095	35.982934	36.305888	45.000000	-45.000000	-2605.645387	-3702.769329	143.052463	180.000000	1453.918922	60.389580	23.124510	5.165473	7.403269	-45.000000	-37.731572	45.000000	-40.505730	819.845285	-2250.822826	138.396679	150.917728	370.888207	8.528893	4.784462	-20.490936	
7.0900	39.299155	8.436551	10.627048	-241.984145	852.772054	3.496986	12.627448	35.955544	36.176446	45.000000	-45.000000	-2605.620637	-3702.812477	143.114666	180.000000	1453.890234	60.565962	23.145138	5.103725	7.423056	-45.000000	-37.653356	45.000000	-40.742234	819.885016	-2250.825378	138.401128	150.891646	370.925274	9.132115	4.605654	-20.461211	
7.1000	39.293757	8.374895	10.632226	-242.962858	852.831114	3.561761	12.591910	35.930765	36.044751	45.000000	-45.000000	-2605.585630	-3702.854103	143.169118	180.000000	1453.836379	60.679619	23.171329	5.066346	7.442388	-45.000000	-37.578954	45.000000	-40.986116	819.919926	-2250.837752	138.401486	150.884608	370.958959	9.734745	4.431157	-20.426118	
7.1100	39.288779	8.319282	10.649454	-243.876085	852.845356	3.613257	12.549785	35.905497	35.924150	45.000000	-45.000000	-2605.548637	-3702.901472	143.232071	180.000000	1453.793532	60.735078	23.200128	5.036484	7.465276	-45.000000	-37.489094	45.000000	-41.229335	819.947146	-2250.851706	138.402171	150.898332	370.999307	10.330230	4.264029	-20.388445	
